<svg aria-hidden="true" style="position: absolute; width: 0; height: 0; overflow: hidden;" version="1.1" xmlns="http://www.w3.org/2000/svg" xmlns:xlink="http://www.w3.org/1999/xlink">
<defs>
<symbol id="icon-panda" viewBox="0 0 32 32">
<path fill="#427a2d" style="fill: var(--color1, #427a2d)" d="M32 16c0 0.85-0.067 1.685-0.195 2.499-1.2 7.649-7.819 13.501-15.805 13.501s-14.606-5.851-15.805-13.501c-0.128-0.814-0.195-1.649-0.195-2.499 0-2.133 0.417-4.169 1.175-6.030 0.297-0.73 0.647-1.434 1.045-2.106 0.373-0.63 0.788-1.232 1.241-1.803 0.329-0.414 0.677-0.812 1.045-1.191 0.567-0.586 1.178-1.128 1.829-1.622 0.658-0.5 1.357-0.95 2.090-1.345 0.299-0.161 0.604-0.313 0.914-0.455 0.673-0.309 1.371-0.572 2.090-0.786 0.658-0.196 1.334-0.351 2.024-0.461 0.345-0.055 0.693-0.099 1.045-0.132 0.494-0.046 0.995-0.070 1.502-0.070 0.087 0 0.174 0.001 0.261 0.003 1.005 0.016 1.987 0.124 2.939 0.317 0.33 0.067 0.657 0.144 0.98 0.232 0.718 0.193 1.416 0.436 2.090 0.724 0.22 0.093 0.438 0.192 0.653 0.296 0.356 0.17 0.704 0.355 1.045 0.55 0.735 0.423 1.434 0.903 2.090 1.434 0.362 0.293 0.71 0.6 1.045 0.923 0.342 0.329 0.668 0.673 0.98 1.031 0.808 0.93 1.511 1.955 2.090 3.056 1.168 2.221 1.829 4.751 1.829 7.434z"></path>
<path fill="#69af54" style="fill: var(--color2, #69af54)" d="M31.805 18.499c-0.275 1.756-0.837 3.417-1.634 4.934-0.579 1.1-1.281 2.125-2.090 3.056-0.311 0.358-0.638 0.703-0.98 1.032-0.334 0.323-0.683 0.631-1.045 0.923-0.656 0.53-1.354 1.010-2.090 1.433-0.341 0.196-0.689 0.38-1.045 0.55-0.215 0.104-0.432 0.202-0.653 0.296-0.674 0.287-1.371 0.53-2.090 0.724-0.323 0.087-0.649 0.165-0.98 0.232-0.951 0.193-1.934 0.302-2.939 0.317-0.087 0.002-0.174 0.003-0.261 0.003-0.507 0-1.008-0.023-1.502-0.069-0.352-0.033-0.7-0.077-1.045-0.133-0.691-0.11-1.366-0.265-2.024-0.461-0.719-0.214-1.417-0.477-2.090-0.786-0.31-0.142-0.615-0.294-0.914-0.455-0.733-0.394-1.431-0.844-2.090-1.345-0.65-0.494-1.262-1.036-1.829-1.622-0.368-0.379-0.716-0.777-1.045-1.191-0.453-0.57-0.868-1.173-1.241-1.802-0.398-0.673-0.748-1.377-1.045-2.107-0.456-1.119-0.788-2.301-0.981-3.53l31.611 0z"></path>
<path fill="#4c8e37" style="fill: var(--color3, #4c8e37)" d="M30.171 8.566v14.868c-0.579 1.1-1.281 2.125-2.090 3.056v-20.98c0.809 0.93 1.511 1.955 2.090 3.056z"></path>
<path fill="#4c8e37" style="fill: var(--color3, #4c8e37)" d="M22.269 1.275v29.449c-0.674 0.287-1.371 0.53-2.090 0.724v-30.896c0.718 0.193 1.416 0.436 2.090 0.724z"></path>
<path fill="#4c8e37" style="fill: var(--color3, #4c8e37)" d="M8.425 1.904v28.193c-0.733-0.394-1.431-0.844-2.090-1.345v-25.503c0.658-0.5 1.357-0.95 2.090-1.345z"></path>
<path fill="#4c8e37" style="fill: var(--color3, #4c8e37)" d="M11.429 0.663v30.674c-0.719-0.214-1.417-0.477-2.090-0.786v-29.103c0.673-0.309 1.371-0.572 2.090-0.786z"></path>
<path fill="#4c8e37" style="fill: var(--color3, #4c8e37)" d="M27.102 4.479v23.043c-0.334 0.323-0.683 0.631-1.045 0.923v-24.889c0.362 0.293 0.71 0.6 1.045 0.923z"></path>
<path fill="#4c8e37" style="fill: var(--color3, #4c8e37)" d="M2.22 7.864v16.273c-0.398-0.673-0.748-1.377-1.045-2.107v-12.059c0.297-0.73 0.647-1.434 1.045-2.106z"></path>
<path fill="#4c8e37" style="fill: var(--color3, #4c8e37)" d="M4.506 4.87v22.26c-0.368-0.379-0.716-0.777-1.045-1.191v-19.878c0.329-0.414 0.677-0.812 1.045-1.191z"></path>
<path fill="#4c8e37" style="fill: var(--color3, #4c8e37)" d="M23.967 2.122v27.756c-0.341 0.196-0.689 0.38-1.045 0.55v-28.857c0.356 0.17 0.704 0.355 1.045 0.551z"></path>
<path fill="#4c8e37" style="fill: var(--color3, #4c8e37)" d="M14.498 0.070v31.861c-0.352-0.033-0.7-0.077-1.045-0.133v-31.596c0.345-0.055 0.693-0.099 1.045-0.132z"></path>
<path fill="#4c8e37" style="fill: var(--color3, #4c8e37)" d="M19.2 0.32v31.36c-0.951 0.193-1.934 0.302-2.939 0.317v-31.995c1.005 0.016 1.987 0.124 2.939 0.317z"></path>
<path fill="#665b5b" style="fill: var(--color4, #665b5b)" d="M28.608 25.852c-2.929 3.743-7.487 6.148-12.608 6.148s-9.679-2.405-12.608-6.148c0.45-1.75 1.308-3.357 2.476-4.699 1.996-2.296 4.897-3.822 8.214-3.99 1.279-0.065 2.557-0.065 3.836 0 3.318 0.168 6.218 1.695 8.214 3.99 1.168 1.343 2.026 2.949 2.476 4.699z"></path>
<path fill="#665b5b" style="fill: var(--color4, #665b5b)" d="M29.91 5.177c0 2.236-1.813 4.049-4.049 4.049s-4.049-1.813-4.049-4.049c0-2.236 1.813-4.049 4.049-4.049s4.049 1.813 4.049 4.049z"></path>
<path fill="#4d4445" style="fill: var(--color5, #4d4445)" d="M27.885 5.465c0 1.278-1.036 2.313-2.313 2.313s-2.313-1.036-2.313-2.313c0-1.278 1.036-2.313 2.313-2.313s2.313 1.036 2.313 2.313z"></path>
<path fill="#665b5b" style="fill: var(--color4, #665b5b)" d="M10.188 5.177c0 2.236-1.813 4.049-4.049 4.049s-4.049-1.813-4.049-4.049c0-2.236 1.813-4.049 4.049-4.049s4.049 1.813 4.049 4.049z"></path>
<path fill="#4d4445" style="fill: var(--color5, #4d4445)" d="M8.741 5.465c0 1.278-1.036 2.313-2.313 2.313s-2.313-1.036-2.313-2.313c0-1.278 1.036-2.313 2.313-2.313s2.313 1.036 2.313 2.313z"></path>
<path fill="#4d4445" style="fill: var(--color5, #4d4445)" d="M26.132 21.153c-1.996-2.296-4.897-3.822-8.214-3.99-0.705-0.036-1.409-0.051-2.113-0.047 0.013-0.001 0.025-0.001 0.039-0.001-0.046 0.001-0.093 0.001-0.14 0.001-0.083 0.001-0.166 0.001-0.249 0.003-0.079 0.001-0.158 0.003-0.237 0.005-0.074 0.001-0.149 0.003-0.223 0.005-0.082 0.003-0.165 0.005-0.248 0.008-0.070 0.003-0.14 0.005-0.21 0.007-0.152 0.006-0.303 0.012-0.454 0.020-5.26 0.266-9.471 3.948-10.69 8.69 1.153 1.474 2.56 2.74 4.153 3.734-0.045-0.867-0.025-1.72 0.054-2.548 0.211-2.203 2.158-3.809 4.344-3.658 0.118 0.008 0.226 0.070 0.293 0.167l0.893 1.305c0.182 0.266 0.578 0.254 0.744-0.022l0.402-0.67c0.153-0.256 0.527-0.247 0.668 0.016l1.002 1.864c0.19 0.354 0.716 0.291 0.817-0.098l0.445-1.711c0.075-0.288 0.434-0.385 0.644-0.175l0.4 0.4c0.204 0.204 0.546 0.161 0.693-0.087l0.455-0.766c0.062-0.105 0.17-0.173 0.291-0.186 1.002-0.103 2.004-0.248 3.006-0.436 1.331-0.249 2.52-0.901 3.436-1.828z"></path>
<path fill="#e6e6e6" style="fill: var(--color6, #e6e6e6)" d="M17.809 3.053c-1.206-0.061-2.413-0.061-3.619 0-6.579 0.333-11.42 6.329-10.25 12.812 0.063 0.347 0.136 0.695 0.219 1.042 0.601 2.5 2.616 4.425 5.144 4.898 4.464 0.836 8.929 0.836 13.393 0 2.527-0.473 4.543-2.398 5.144-4.898 0.083-0.347 0.157-0.695 0.219-1.042 1.17-6.482-3.671-12.479-10.25-12.812z"></path>
<path fill="#ccc" style="fill: var(--color7, #ccc)" d="M16 22.432c-2.232 0-4.464-0.209-6.697-0.627-2.527-0.473-4.543-2.397-5.144-4.898-0.084-0.347-0.157-0.695-0.219-1.042-1.17-6.482 3.671-12.479 10.25-12.812 0.554-0.027 1.108-0.043 1.662-0.045-0.345 0.003-0.691 0.019-1.036 0.045-4.302 0.333-7.467 6.329-6.702 12.812 0.041 0.347 0.089 0.695 0.144 1.042 0.393 2.501 1.71 4.425 3.363 4.898 1.46 0.418 2.919 0.627 4.379 0.627z"></path>
<path fill="#665b5b" style="fill: var(--color4, #665b5b)" d="M19.915 11.942l-0.656 0.656c-0.79 0.79-0.674 2.091 0.228 2.748 0.825 0.6 1.558 1.309 2.186 2.11 0.821 1.048 2.369 1.152 3.31 0.21v0c0.942-0.942 0.838-2.489-0.21-3.31-0.801-0.628-1.509-1.361-2.11-2.186-0.657-0.903-1.958-1.018-2.748-0.228z"></path>
<path fill="#665b5b" style="fill: var(--color4, #665b5b)" d="M12.084 11.942l0.656 0.656c0.79 0.79 0.675 2.091-0.228 2.748-0.825 0.6-1.558 1.309-2.186 2.11-0.821 1.048-2.369 1.152-3.31 0.21v0c-0.941-0.942-0.838-2.489 0.21-3.31 0.801-0.628 1.509-1.361 2.11-2.186 0.657-0.903 1.958-1.018 2.748-0.228z"></path>
<path fill="#ccc" style="fill: var(--color7, #ccc)" d="M18.534 22.445c-1.689 0.312-3.378 0.312-5.068 0-1.050-0.194-1.896-1.235-2.058-2.586-0.060-0.503-0.060-1.007 0-1.51 0.162-1.351 1.008-2.392 2.058-2.586 1.689-0.312 3.378-0.312 5.067-0 1.072 0.198 1.918 1.281 2.067 2.664 0.051 0.477 0.049 0.955-0.009 1.433-0.162 1.351-1.008 2.392-2.058 2.586z"></path>
<path fill="#b39f9f" style="fill: var(--color8, #b39f9f)" d="M14.583 22.445c0.443 0.146 0.885 0.224 1.328 0.233-0.815-0.005-1.63-0.083-2.445-0.233-1.050-0.194-1.896-1.236-2.058-2.586-0.060-0.503-0.060-1.007 0-1.511 0.162-1.351 1.008-2.392 2.058-2.585 0.815-0.151 1.63-0.229 2.446-0.234-0.443 0.009-0.886 0.088-1.329 0.234-0.587 0.193-1.060 1.235-1.151 2.585-0.033 0.503-0.033 1.007 0 1.511 0.091 1.351 0.564 2.392 1.151 2.586z"></path>
<path fill="#0f0f0e" style="fill: var(--color9, #0f0f0e)" d="M18.203 16.915c0 0.798-0.986 1.905-2.203 1.905s-2.203-1.106-2.203-1.905 0.986-0.987 2.203-0.987 2.203 0.188 2.203 0.987z"></path>
<path fill="#807272" style="fill: var(--color10, #807272)" d="M17.698 16.834c0 0.325-0.263 0.588-0.588 0.588s-0.588-0.263-0.588-0.588c0-0.325 0.263-0.588 0.588-0.588s0.588 0.263 0.588 0.588z"></path>
<path fill="#4d4445" style="fill: var(--color5, #4d4445)" d="M21.192 16.018c-0.864 0-1.567-0.703-1.567-1.567 0-0.707 0.477-1.33 1.159-1.513 0.134-0.036 0.271-0.054 0.408-0.054 0.864 0 1.567 0.703 1.567 1.567 0 0.137-0.018 0.274-0.054 0.408-0.183 0.683-0.806 1.16-1.513 1.16z"></path>
<path fill="#4d4445" style="fill: var(--color5, #4d4445)" d="M10.808 16.018c-0.864 0-1.567-0.703-1.567-1.567 0-0.707 0.477-1.33 1.159-1.513 0.134-0.036 0.271-0.054 0.408-0.054 0.864 0 1.567 0.703 1.567 1.567 0 0.137-0.018 0.274-0.054 0.408-0.184 0.683-0.806 1.16-1.513 1.16z"></path>
<path fill="#0f0f0e" style="fill: var(--color9, #0f0f0e)" d="M22.041 14.124c0 0.076-0.010 0.151-0.029 0.221-0.097 0.362-0.427 0.628-0.82 0.628-0.469 0-0.849-0.38-0.849-0.849 0-0.393 0.266-0.722 0.628-0.82 0.070-0.019 0.145-0.029 0.221-0.029 0.469 0 0.849 0.38 0.849 0.849z"></path>
<path fill="#0f0f0e" style="fill: var(--color9, #0f0f0e)" d="M11.657 14.124c0 0.469-0.38 0.849-0.849 0.849s-0.849-0.38-0.849-0.849c0-0.469 0.38-0.849 0.849-0.849s0.849 0.38 0.849 0.849z"></path>
<path fill="#e6e6e6" style="fill: var(--color6, #e6e6e6)" d="M22.041 14.124c0 0.076-0.010 0.151-0.029 0.221-0.1 0.046-0.212 0.072-0.33 0.072-0.433 0-0.784-0.351-0.784-0.784 0-0.118 0.026-0.23 0.073-0.33 0.070-0.019 0.145-0.029 0.221-0.029 0.469 0 0.849 0.38 0.849 0.849z"></path>
<path fill="#e6e6e6" style="fill: var(--color6, #e6e6e6)" d="M11.657 14.124c0 0.076-0.010 0.151-0.029 0.221-0.1 0.046-0.212 0.072-0.33 0.072-0.433 0-0.784-0.351-0.784-0.784 0-0.118 0.026-0.23 0.072-0.33 0.070-0.019 0.145-0.029 0.221-0.029 0.469 0 0.849 0.38 0.849 0.849z"></path>
<path fill="#665b5b" style="fill: var(--color4, #665b5b)" d="M6.221 23.749c0.177-0.272 0.606-0.182 0.645 0.141 0.073 0.596-0.513 1.432-1.223 1.702-0.736 0.28 0.116-1.134 0.578-1.843z"></path>
<path fill="#665b5b" style="fill: var(--color4, #665b5b)" d="M6.433 25.835c0.117-0.303 0.555-0.303 0.66 0.005 0.195 0.568-0.207 1.507-0.846 1.918-0.663 0.426-0.12-1.133 0.185-1.923z"></path>
</symbol>
<symbol id="icon-bird" viewBox="0 0 32 32">
<path fill="#f79d16" style="fill: var(--color11, #f79d16)" d="M16.508 30.589l-1.086-6.036 0.984-0.179 1.086 6.036z"></path>
<path fill="#f79d16" style="fill: var(--color11, #f79d16)" d="M15 30h5v1h-5z"></path>
<path fill="#f79d16" style="fill: var(--color11, #f79d16)" d="M16.5 28.5c-0.552 0-1-0.448-1-1s0.448-1 1-1c0.552 0 1 0.448 1 1v0c-0.001 0.552-0.448 0.999-1 1h-0z"></path>
<path fill="#ffb531" style="fill: var(--color12, #ffb531)" d="M13.508 30.589l-1.086-6.036 0.984-0.179 1.086 6.036z"></path>
<path fill="#ffb531" style="fill: var(--color12, #ffb531)" d="M12 30h5v1h-5z"></path>
<path fill="#ffb531" style="fill: var(--color12, #ffb531)" d="M13.5 28.5c-0.552 0-1-0.448-1-1s0.448-1 1-1c0.552 0 1 0.448 1 1v0c-0.001 0.552-0.448 0.999-1 1h-0z"></path>
<path fill="#ffb531" style="fill: var(--color12, #ffb531)" d="M27 9v-3l3.5 1.5z"></path>
<path fill="#4db7e5" style="fill: var(--color13, #4db7e5)" d="M27 5.704v7.796c0 6.351-5.149 11.5-11.5 11.5v0h-10.375l10.875-16.5 3.259-5.069c0.76-1.169 2.059-1.931 3.537-1.931 2.322 0 4.204 1.882 4.205 4.204v0z"></path>
<path fill="#48add9" style="fill: var(--color14, #48add9)" d="M27 10.835v2.665c0 6.351-5.149 11.5-11.5 11.5v0h-10.375l4.192-6.36h1.895c0.008 0 0.017 0 0.027 0 5.478 0 10.437-2.224 14.022-5.819l0-0c0.609-0.609 1.178-1.256 1.705-1.939l0.035-0.047z"></path>
<path fill="#313b4c" style="fill: var(--color15, #313b4c)" d="M24 5.5c0 0.552-0.448 1-1 1s-1-0.448-1-1c0-0.552 0.448-1 1-1s1 0.448 1 1z"></path>
<path fill="#2d7dbf" style="fill: var(--color16, #2d7dbf)" d="M7.102 22l-5.602 8.5h3.5l5.667-8.5z"></path>
<path fill="#348fd9" style="fill: var(--color17, #348fd9)" d="M23.5 8.5c0 0.006 0 0.013 0 0.020 0 2.179-0.519 4.237-1.439 6.057l0.035-0.077q-0.255 0.512-0.551 1-0.314 0.516-0.671 1-0.383 0.519-0.813 1c-0.318 0.355-0.642 0.681-0.982 0.99l-0.011 0.010c-0.373 0.34-0.778 0.668-1.201 0.972l-0.040 0.028c-2.168 1.563-4.878 2.5-7.806 2.5-0.007 0-0.015 0-0.022-0h-2.896l8.898-13.5z"></path>
<path fill="#2a71ad" style="fill: var(--color18, #2a71ad)" d="M19.069 18.5c-0.373 0.34-0.778 0.668-1.201 0.972l-0.040 0.028h-9.078l0.659-1z"></path>
<path fill="#2a71ad" style="fill: var(--color18, #2a71ad)" d="M20.874 16.5q-0.383 0.519-0.813 1h-9.993l0.659-1z"></path>
<path fill="#2a71ad" style="fill: var(--color18, #2a71ad)" d="M22.096 14.5q-0.255 0.512-0.551 1h-10.159l0.659-1z"></path>
</symbol>
<symbol id="icon-cat" viewBox="0 0 32 32">
<path fill="#ffae8b" style="fill: var(--color19, #ffae8b)" d="M22.88 9.33c-0.044-0.261-0.291-0.435-0.552-0.391l-1.184 0.202c-0.26 0.044-0.435 0.291-0.391 0.552 0.040 0.233 0.242 0.398 0.47 0.398 0.027 0 0.054-0.002 0.081-0.007l1.184-0.202c0.26-0.044 0.435-0.291 0.391-0.552z"></path>
<path fill="#ffae8b" style="fill: var(--color19, #ffae8b)" d="M22.321 11.563l-1.14-0.619c-0.232-0.126-0.522-0.040-0.648 0.192s-0.040 0.522 0.192 0.648l1.14 0.619c0.073 0.040 0.151 0.058 0.228 0.058 0.17 0 0.334-0.090 0.42-0.25 0.126-0.232 0.040-0.522-0.192-0.648z"></path>
<path fill="#ffae8b" style="fill: var(--color19, #ffae8b)" d="M4.895 10.083c0.027 0.005 0.054 0.007 0.081 0.007 0.229 0 0.431-0.165 0.471-0.398 0.044-0.26-0.131-0.507-0.391-0.552l-1.184-0.202c-0.26-0.044-0.507 0.131-0.552 0.391s0.131 0.507 0.391 0.552z"></path>
<path fill="#ffae8b" style="fill: var(--color19, #ffae8b)" d="M5.019 10.944l-1.14 0.619c-0.232 0.126-0.318 0.416-0.192 0.648 0.086 0.159 0.251 0.25 0.42 0.25 0.077 0 0.155-0.019 0.228-0.058l1.14-0.619c0.232-0.126 0.318-0.416 0.192-0.648s-0.416-0.318-0.648-0.192z"></path>
<path fill="#ffdca7" style="fill: var(--color20, #ffdca7)" d="M23.847 10.332c0.084 1.652 2.202 4.217 1.955 7.489-0.22 2.928-1.6 6.483-4.425 8.282 0.011 0.162 0.017 0.312 0.017 0.448 0 1.782-0.937 2.827-2.839 3.387 0.002-0 10.104-2.2 10.106-12.983 0.002-10.999-4.925-8.792-4.815-6.621z"></path>
<path fill="#ffcf86" style="fill: var(--color21, #ffcf86)" d="M22.938 24.792c-0.461 0.497-0.98 0.94-1.56 1.309 0.011 0.162 0.018 0.312 0.018 0.448 0 1.782-0.937 2.827-2.839 3.387 0 0 2.033-0.443 4.275-1.904 0.19-0.425 0.284-0.917 0.284-1.483 0-0.453-0.066-1.057-0.178-1.757z"></path>
<path fill="#ffe9c8" style="fill: var(--color22, #ffe9c8)" d="M15.488 3.201s1.337-3.426 2.483-3.189c1.162 0.24 0.936 4.106 0.936 4.106s2.4 3.684 2.322 5.802c-0.078 2.119-1.44 3.532-2.788 3.79 0 0 2.954 9.805 2.954 12.84s-2.716 3.934-8.295 3.934c-5.58 0-8.296-0.899-8.296-3.934s2.954-12.84 2.954-12.84c-1.348-0.258-2.71-1.671-2.788-3.79s2.322-5.803 2.322-5.803-0.226-3.865 0.936-4.106c1.146-0.237 2.483 3.189 2.483 3.189z"></path>
<path fill="#ffdca7" style="fill: var(--color20, #ffdca7)" d="M13.1 28.762c-5.080 0-7.785-0.746-8.23-3.169-0.042 0.364-0.066 0.687-0.066 0.956 0 3.034 2.716 3.934 8.295 3.934s8.296-0.9 8.296-3.934c0-0.269-0.024-0.592-0.066-0.956-0.444 2.423-3.15 3.169-8.229 3.169z"></path>
<path fill="#ffae8b" style="fill: var(--color19, #ffae8b)" d="M8.229 0.012c-1.162 0.24-0.936 4.106-0.936 4.106s-2.4 3.684-2.322 5.802c0.041 1.12 0.441 2.043 1.009 2.703 6.748-1.509 6.154-9.421 6.154-9.421h-1.421s-1.337-3.426-2.483-3.189z"></path>
<path fill="#ffae8b" style="fill: var(--color19, #ffae8b)" d="M17.97 0.012c1.162 0.24 0.936 4.106 0.936 4.106s2.4 3.684 2.322 5.802c-0.041 1.12-0.441 2.043-1.009 2.703-6.748-1.509-6.154-9.421-6.154-9.421h1.421s1.337-3.426 2.483-3.189z"></path>
<path fill="#433f43" style="fill: var(--color23, #433f43)" d="M9.088 6.956c-0.544 0-0.97 0.529-0.97 1.205s0.426 1.205 0.97 1.205c0.544 0 0.97-0.529 0.97-1.205s-0.426-1.205-0.97-1.205z"></path>
<path fill="#433f43" style="fill: var(--color23, #433f43)" d="M17.111 6.956c-0.544 0-0.97 0.529-0.97 1.205s0.426 1.205 0.97 1.205c0.544 0 0.97-0.529 0.97-1.205s-0.426-1.205-0.97-1.205z"></path>
<path fill="#dd8858" style="fill: var(--color24, #dd8858)" d="M14.568 9.255c0-0.166-0.064-0.569-0.658-0.71-0.195-0.046-0.438-0.066-0.811-0.066s-0.616 0.020-0.811 0.066c-0.594 0.141-0.658 0.543-0.658 0.71 0 0.455 0.432 0.877 0.991 1.037v1.072c0 0.264 0.214 0.478 0.478 0.478s0.478-0.214 0.478-0.478v-1.072c0.558-0.16 0.99-0.583 0.99-1.037z"></path>
<path fill="#ffe9c8" style="fill: var(--color22, #ffe9c8)" d="M8.065 19.157s0.466 12.365 2.246 12.365 1.822-11.147 1.822-11.147z"></path>
<path fill="#ffe9c8" style="fill: var(--color22, #ffe9c8)" d="M18.134 19.157s-0.466 12.365-2.246 12.365-1.822-11.147-1.822-11.147z"></path>
<path fill="#ffdca7" style="fill: var(--color20, #ffdca7)" d="M10.311 32c-0.872 0-1.294-1.225-1.565-2.293-0.266-1.047-0.501-2.499-0.7-4.316-0.337-3.073-0.457-6.186-0.458-6.217-0.010-0.264 0.196-0.486 0.46-0.496 0.264-0.011 0.486 0.196 0.496 0.46 0.001 0.029 0.112 2.911 0.42 5.846 0.18 1.713 0.391 3.107 0.626 4.142 0.34 1.496 0.641 1.836 0.727 1.906 0.13-0.096 0.756-0.793 1.118-5.392 0.208-2.645 0.22-5.242 0.22-5.268 0.001-0.263 0.215-0.476 0.478-0.476h0.002c0.264 0.001 0.477 0.216 0.476 0.48 0 0.028-0.013 2.838-0.245 5.612-0.137 1.643-0.324 2.957-0.555 3.905-0.22 0.905-0.615 2.107-1.5 2.107z"></path>
<path fill="#ffdca7" style="fill: var(--color20, #ffdca7)" d="M15.888 32c-0.885 0-1.28-1.202-1.5-2.107-0.231-0.949-0.417-2.262-0.555-3.905-0.232-2.774-0.245-5.584-0.245-5.612-0.001-0.264 0.212-0.479 0.476-0.48h0.002c0.263 0 0.477 0.213 0.478 0.476 0 0.026 0.012 2.627 0.221 5.272 0.362 4.594 0.988 5.291 1.117 5.388 0.086-0.070 0.387-0.41 0.727-1.907 0.236-1.035 0.446-2.428 0.626-4.142 0.308-2.935 0.419-5.817 0.42-5.846 0.010-0.264 0.234-0.471 0.496-0.46 0.264 0.010 0.469 0.232 0.46 0.496-0.001 0.031-0.121 3.144-0.458 6.217-0.199 1.817-0.435 3.269-0.7 4.316-0.27 1.067-0.693 2.292-1.565 2.292z"></path>
</symbol>
<symbol id="icon-dog" viewBox="0 0 32 32">
<path fill="#f58c46" style="fill: var(--color25, #f58c46)" d="M28.844 4.396c-0.194-0.137-0.439 0.092-0.31 0.291 1.070 1.655 3.079 5.571-0.405 7.7l1.097 2.032c1.019-0.634 2.774-2.133 2.774-4.398 0-1.875-1.242-4.272-3.156-5.626z"></path>
<path fill="#eba34b" style="fill: var(--color26, #eba34b)" d="M30.11 20.305c-0.449-0.618-0.691-1.361-0.691-2.125v-2.879c0-2.386-1.808-4.385-4.183-4.622l-10.636-1.010c-0.587-0.056-1.122-0.36-1.47-0.835l-0.468-0.639-0.054-0.037c0.207-0.704 0.105-1.548-0.188-2.157-0.489-1.015-2.242-3.161-4-3.161h-1.385c-0.789 0-1.548 0.301-2.122 0.842l-1.299 1.223-3.233 0.906c-0.259 0.071-0.42 0.329-0.37 0.594l0.195 0.918c0.084 0.446 0.449 0.777 0.892 0.83l0.109 0.677c0.074 0.381 0.349 0.689 0.72 0.805 0.762 0.238 2.151 0.581 3.686 0.559 0.25-0.004 0.461 0.18 0.473 0.429 0.035 0.703 0.158 1.793 0.544 3.028l0.56 1.55c0.411 0.993 0.985 2.161 1.746 3.445 2.416 4.075 2.419 7.936 2.419 7.936l-1.494 0.747c-0.35 0.175-0.571 0.532-0.571 0.923v0.394c0 0.285 0.231 0.516 0.516 0.516h2.663c0.537 0 0.984-0.412 1.029-0.947l0.669-8.079c2.754 0.761 7.271 0.227 9.449-0.826 2.217 3.107 5.288 3.745 5.288 3.745v3.527l-1.932 0.773c-0.392 0.157-0.649 0.536-0.649 0.958v0.333c0 0.285 0.231 0.516 0.516 0.516h2.722c0.512 0 0.946-0.375 1.021-0.881l0.871-5.878c0.020-0.134-0.014-0.27-0.093-0.379l-1.25-1.718z"></path>
<path fill="#ebc9a0" style="fill: var(--color27, #ebc9a0)" d="M6.629 13.65l0.56 1.55c0.411 0.993 0.985 2.161 1.746 3.445 0.4 0.674 0.728 1.34 1.006 1.986-0.406-1.7-1.039-3.641-1.393-4.793-0.774-2.516-0.559-5.291-0.613-6.452-0.064-1.387-1.742-1.344-2.215-1.215l-4.544 0.476 0.029 0.179c0.074 0.381 0.349 0.689 0.72 0.805 0.762 0.238 2.151 0.581 3.686 0.559 0.25-0.004 0.461 0.18 0.473 0.429 0.035 0.703 0.158 1.793 0.544 3.029z"></path>
<path fill="#f58c46" style="fill: var(--color25, #f58c46)" d="M12.419 6c-0.33-0.685-1.235-1.885-2.33-2.593-0.778-0.503-1.822-0.15-2.138 0.721l-0.005 0.014c-0.141 0.388-0.091 0.809 0.089 1.181 0.645 1.331 0.374 3.903 2.448 4.129 2.329 0.254 2.564-2.145 1.935-3.452z"></path>
<path fill="#4b3f4e" style="fill: var(--color28, #4b3f4e)" d="M5.682 5.936c-0.285 0-0.519-0.231-0.519-0.516s0.229-0.516 0.514-0.516h0.005c0.285 0 0.516 0.231 0.516 0.516s-0.231 0.516-0.516 0.516z"></path>
<path fill="#ebc9a0" style="fill: var(--color27, #ebc9a0)" d="M23.615 19.309c-0.272-0.431-0.484-0.86-0.634-1.2-0.168-0.382-0.579-0.594-0.986-0.505-2.433 0.533-4.992 0.171-6.454-0.138-0.643-0.136-1.252 0.332-1.287 0.989l-0.088 1.68c2.754 0.761 7.271 0.227 9.449-0.826z"></path>
<path fill="#d99365" style="fill: var(--color29, #d99365)" d="M5.384 7.617c-0.84 0.225-2.343 0.413-4.286 0.539l0.108 0.671c0.025 0.127 0.079 0.241 0.144 0.348 0.020-0.001 0.038-0.002 0.058-0.004 1.528-0.106 3.201-0.278 4.242-0.557 0.276-0.074 0.439-0.357 0.365-0.632s-0.357-0.44-0.632-0.365z"></path>
<path fill="#4b3f4e" style="fill: var(--color28, #4b3f4e)" d="M0.009 6.403l0.164 0.77c0.035 0.004 0.070 0.010 0.107 0.010 0.511 0 0.925-0.385 0.925-0.86 0-0.262-0.129-0.495-0.328-0.652l-0.497 0.139c-0.259 0.071-0.42 0.329-0.37 0.594z"></path>
<path fill="#6e4848" style="fill: var(--color30, #6e4848)" d="M6.638 14.179c-0.22-0.003-0.416-0.167-0.464-0.405-0.056-0.277 0.109-0.551 0.369-0.612 0.036-0.008 3.655-0.884 6.72-4.295 0.185-0.205 0.49-0.213 0.682-0.016s0.198 0.522 0.014 0.728c-3.279 3.649-7.054 4.553-7.213 4.589-0.036 0.008-0.073 0.012-0.109 0.012z"></path>
<path fill="#f58c46" style="fill: var(--color25, #f58c46)" d="M6.452 16.086v0c-0.428 0-0.774-0.347-0.774-0.774v-0.516c0-0.428 0.347-0.774 0.774-0.774v0c0.428 0 0.774 0.347 0.774 0.774v0.516c0 0.428-0.347 0.774-0.774 0.774z"></path>
</symbol>
<symbol id="icon-elephant" viewBox="0 0 32 32">
<path fill="#9c969e" style="fill: var(--color31, #9c969e)" d="M29.054 28.194h2.098c0.31 0 0.555-0.261 0.533-0.569-0.102-1.449-0.36-5.21-0.36-5.908 0-0.868 1.202-6.544 0.401-9.549l-1.936 1.936-0.735 14.089z"></path>
<path fill="#867e88" style="fill: var(--color32, #867e88)" d="M14.564 15.941l-4.043 7.183c-0.108 0.188-0.177 0.396-0.202 0.611l-0.241 2.044c-0.022 0.184-0.075 0.363-0.158 0.529l-0.65 1.299c-0.135 0.27 0.061 0.587 0.363 0.587h3.362l0.835-4.774 3.806-4.507-3.072-2.971z"></path>
<path fill="#aea8af" style="fill: var(--color33, #aea8af)" d="M31.725 12.168c-0.534-3.205-4.274-7.479-7.479-6.944s-4.274 1.068-7.479-0.534-4.808-0.534-4.808-0.534c-1.603 0.534-3.637 0.183-5.075 0.868-1.168 0.556-2.916 5.82-3.372 8.547-0.038 0.227-0.276 1.442-0.278 1.936-0.009 2.092 0.592 7.556 2.788 8.997 0.416 0.273 0.87 0.41 1.345 0.41 0.358 0 0.728-0.078 1.103-0.234 0.273-0.113 0.402-0.426 0.288-0.698-0.113-0.273-0.428-0.4-0.698-0.288-0.554 0.23-1.014 0.203-1.451-0.083-0.355-0.233-0.667-0.629-0.941-1.123-0.728-2.146-0.407-5.507-0.219-6.951 0.054-0.419 0.327-0.767 0.711-0.942 1.042-0.475 2.273-1.282 2.986-1.773 0.377-0.26 0.857-0.318 1.284-0.152v0c0.476 0.184 0.811 0.617 0.871 1.123l1.425 11.966c0.023 0.195-0.008 0.393-0.090 0.571l-0.646 1.41c-0.097 0.212 0.058 0.454 0.291 0.454h2.35c0.295 0 0.534-0.239 0.534-0.534v-9.616c0 0 4.3 3.659 9.819 2.151l1.444 1.642c0.171 0.195 0.266 0.446 0.266 0.705v3.311c0 0.135-0.025 0.268-0.075 0.393l-0.597 1.509c-0.083 0.21 0.072 0.439 0.298 0.439h3.268v-6.945c0-1.603 2.671-5.876 2.137-9.081z"></path>
<path fill="#9c969e" style="fill: var(--color31, #9c969e)" d="M15.165 18.040v0.004c0 0 4.3 3.659 9.819 2.151l-1.607-1.607c-0.209-0.209-0.494-0.312-0.789-0.309-2.084 0.021-4.511-0.706-6.008-1.24-0.692-0.247-1.416 0.268-1.416 1.002z"></path>
<path fill="#9c969e" style="fill: var(--color31, #9c969e)" d="M10.744 5.86l-1.035 2.358c-0.653 1.487-0.454 3.237 0.591 4.48 0.083 0.099 0.16 0.18 0.227 0.241 0.203 0.182 0.508 0.178 0.708-0.007 0.040-0.037 0.082-0.076 0.127-0.118 0.268-0.252 0.52-0.521 0.759-0.8l0.764-0.892c0.394-0.459 0.758-0.945 1.056-1.472 0.319-0.565 0.57-1.16 0.69-1.755 0.293-1.464-0.517-3.123-1.936-3.261-0.837-0.081-1.613 0.457-1.951 1.226z"></path>
<path fill="#edebed" style="fill: var(--color34, #edebed)" d="M0.134 15.251c0.814-0.235 2.519-0.813 3.577-1.78 0.153-0.14 0.37-0.184 0.555-0.089 0.332 0.171 0.839 0.489 1.108 0.939 0.159 0.266 0.039 0.611-0.234 0.757-0.883 0.473-3.043 1.41-5.027 0.524-0.159-0.071-0.146-0.303 0.021-0.351z"></path>
<path fill="#4b3f4e" style="fill: var(--color28, #4b3f4e)" d="M6.083 10.565c-0.295 0-0.537-0.239-0.537-0.534s0.236-0.534 0.532-0.534h0.005c0.295 0 0.534 0.239 0.534 0.534s-0.239 0.534-0.534 0.534z"></path>
<path fill="#dbd9dc" style="fill: var(--color35, #dbd9dc)" d="M5.042 13.926c-0.981 0.665-2.932 1.731-5.035 1.475-0.012 0.078 0.019 0.163 0.106 0.201 1.984 0.886 4.144-0.050 5.027-0.524 0.273-0.146 0.393-0.491 0.234-0.757-0.088-0.148-0.206-0.276-0.331-0.395z"></path>
</symbol>
<symbol id="icon-giraffe" viewBox="0 0 32 32">
<path fill="#ffdc64" style="fill: var(--color36, #ffdc64)" d="M20.152 1.032l-2.064 0.085v2.584c0 0.274-0.109 0.536-0.302 0.73-0.403 0.403-1.057 0.403-1.46 0-0.194-0.194-0.302-0.456-0.302-0.73v-2.584l-2.064-0.085-1.271 7.17 8.744 0.055-1.28-7.226z"></path>
<path fill="#ebaf4b" style="fill: var(--color37, #ebaf4b)" d="M21.7 9.29l0.516 1.032c5.412-1.249 6.459-5.184 6.661-6.66 0.036-0.26-0.224-0.458-0.462-0.35-1.292 0.588-4.727 2.417-6.715 5.977z"></path>
<path fill="#ebaf4b" style="fill: var(--color37, #ebaf4b)" d="M12.41 9.29l-0.516 1.032c-5.412-1.249-6.459-5.184-6.661-6.66-0.036-0.26 0.224-0.458 0.462-0.35 1.292 0.588 4.727 2.417 6.715 5.977z"></path>
<path fill="#e69641" style="fill: var(--color38, #e69641)" d="M22.732 12.903l-5.677 13.419v4.645c0 0.57 0.462 1.032 1.032 1.032h6.045c0.625 0 1.107-0.551 1.023-1.171l-2.422-17.926z"></path>
<path fill="#d27d38" style="fill: var(--color39, #d27d38)" d="M21.7 17.032h-0.715l-3.93 9.29v4.645c0 0.57 0.462 1.032 1.032 1.032h2.116l1.497-14.968z"></path>
<path fill="#e69641" style="fill: var(--color38, #e69641)" d="M13.998 22.73c0.238 2.037 1.516 3.593 3.057 3.593 1.546 0 2.828-1.566 3.059-3.613l-6.117 0.020z"></path>
<path fill="#afd755" style="fill: var(--color40, #afd755)" d="M8.493 24.635c-0.494 0.741-0.702 1.568-0.639 2.303 0.020 0.233 0.255 0.39 0.478 0.318 0.702-0.225 1.386-0.735 1.88-1.476s0.702-1.568 0.639-2.303c-0.020-0.233-0.255-0.39-0.478-0.318-0.702 0.225-1.386 0.735-1.88 1.476z"></path>
<path fill="#bee86e" style="fill: var(--color41, #bee86e)" d="M4.436 22.139c-0.645 0.325-1.091 0.883-1.288 1.515-0.061 0.195 0.047 0.399 0.24 0.465 0.624 0.215 1.335 0.187 1.977-0.137 0.645-0.325 1.091-0.883 1.288-1.515 0.061-0.195-0.047-0.399-0.24-0.465-0.624-0.215-1.335-0.187-1.977 0.137z"></path>
<path fill="#bee86e" style="fill: var(--color41, #bee86e)" d="M7.193 20.299c0.209 0.866 0.675 1.579 1.257 2.032 0.185 0.144 0.459 0.078 0.558-0.135 0.311-0.669 0.4-1.517 0.191-2.382s-0.675-1.579-1.257-2.032c-0.185-0.144-0.459-0.078-0.558 0.135-0.311 0.669-0.4 1.517-0.191 2.382z"></path>
<path fill="#96be4b" style="fill: var(--color42, #96be4b)" d="M14.325 23.777c-2.209 0-6.986-0.308-10.955-2.689-0.244-0.147-0.324-0.464-0.177-0.708s0.463-0.324 0.708-0.177c4.954 2.972 11.501 2.513 11.566 2.509 0.284-0.027 0.532 0.191 0.554 0.475s-0.191 0.532-0.475 0.554c-0.068 0.005-0.513 0.037-1.221 0.037z"></path>
<path fill="#ffc850" style="fill: var(--color43, #ffc850)" d="M17.055 6.194c-3.556 0-5.473 2.305-6.062 4.645l0.384 2.581c0 0 1.387 6.076 1.935 8.21 0.607 2.363 2.882 2.629 3.742 2.629s3.135-0.266 3.742-2.629c0.548-2.134 1.936-8.21 1.936-8.21l0.384-2.581c-0.588-2.34-2.506-4.645-6.062-4.645z"></path>
<path fill="#ebaf4b" style="fill: var(--color37, #ebaf4b)" d="M15.462 21.629c-0.233-2.134-0.824-8.21-0.824-8.21l-0.089-1.406c-0.066-1.048 0.005-2.106 0.282-3.119 0.418-1.525 1.143-2.701 2.224-2.701h-0c-3.556 0-5.473 2.305-6.062 4.645l0.384 2.581c0 0 1.387 6.076 1.935 8.21 0.607 2.363 2.882 2.629 3.742 2.629-0.366-0-1.335-0.266-1.593-2.629z"></path>
<path fill="#4b3f4e" style="fill: var(--color28, #4b3f4e)" d="M15.506 21.161c-0.132 0-0.264-0.050-0.365-0.151l-0.516-0.516c-0.202-0.202-0.202-0.528 0-0.73s0.528-0.202 0.73 0l0.516 0.516c0.202 0.202 0.202 0.528 0 0.73-0.101 0.101-0.233 0.151-0.365 0.151z"></path>
<path fill="#4b3f4e" style="fill: var(--color28, #4b3f4e)" d="M18.603 21.161c-0.132 0-0.264-0.050-0.365-0.151-0.202-0.202-0.202-0.528 0-0.73l0.516-0.516c0.202-0.202 0.528-0.202 0.73 0s0.202 0.528 0 0.73l-0.516 0.516c-0.101 0.101-0.233 0.151-0.365 0.151z"></path>
<path fill="#4b3f4e" style="fill: var(--color28, #4b3f4e)" d="M22.732 13.935v0c-0.855 0-1.548-0.693-1.548-1.548v-0.516c0-0.855 0.693-1.548 1.548-1.548v0c0.855 0 1.548 0.693 1.548 1.548v0.516c0 0.855-0.693 1.548-1.548 1.548z"></path>
<path fill="#5d5360" style="fill: var(--color44, #5d5360)" d="M22.732 10.323v1.806c0 0.428 0.347 0.774 0.774 0.774s0.774-0.347 0.774-0.774v-0.258c0-0.855-0.693-1.548-1.548-1.548z"></path>
<path fill="#fff" style="fill: var(--color45, #fff)" d="M23.249 11.355c0 0.285-0.231 0.516-0.516 0.516s-0.516-0.231-0.516-0.516c0-0.285 0.231-0.516 0.516-0.516s0.516 0.231 0.516 0.516z"></path>
<path fill="#4b3f4e" style="fill: var(--color28, #4b3f4e)" d="M11.377 13.935v0c-0.855 0-1.548-0.693-1.548-1.548v-0.516c0-0.855 0.693-1.548 1.548-1.548v0c0.855 0 1.548 0.693 1.548 1.548v0.516c0 0.855-0.693 1.548-1.548 1.548z"></path>
<path fill="#5d5360" style="fill: var(--color44, #5d5360)" d="M11.377 10.323v1.806c0 0.428 0.347 0.774 0.774 0.774s0.774-0.347 0.774-0.774v-0.258c0-0.855-0.693-1.548-1.548-1.548z"></path>
<path fill="#fff" style="fill: var(--color45, #fff)" d="M11.894 11.355c0 0.285-0.231 0.516-0.516 0.516s-0.516-0.231-0.516-0.516c0-0.285 0.231-0.516 0.516-0.516s0.516 0.231 0.516 0.516z"></path>
<path fill="#d27d38" style="fill: var(--color39, #d27d38)" d="M14.99 2.064v0c-0.57 0-1.032-0.462-1.032-1.032v0c0-0.57 0.462-1.032 1.032-1.032v0c0.57 0 1.032 0.462 1.032 1.032v0c0 0.57-0.462 1.032-1.032 1.032z"></path>
<path fill="#d27d38" style="fill: var(--color39, #d27d38)" d="M19.119 2.064v0c-0.57 0-1.032-0.462-1.032-1.032v0c0-0.57 0.462-1.032 1.032-1.032v0c0.57 0 1.032 0.462 1.032 1.032v0c0 0.57-0.462 1.032-1.032 1.032z"></path>
</symbol>
<symbol id="icon-horse" viewBox="0 0 32 32">
<path fill="#ffdec2" style="fill: var(--color46, #ffdec2)" d="M12.813 2.575s-3.709-0.395-4.63 3.476c-0.276 1.159-1.874 1.655-2.921 1.269 0 0 1.929 4.8 7.771 1.435z"></path>
<path fill="#bf7341" style="fill: var(--color47, #bf7341)" d="M23.088 32l-5.063-10.796c-0.651-1.414-2.283-2.083-3.738-1.534-0.963 0.364-1.968 0.725-2.566 0.888-1.421 0.388-3.659 0.454-5.302-0.437l-1.080 0.795c-1.473 1.084-3.546 0.767-4.628-0.709-1.036-1.412-0.793-3.388 0.552-4.508l10.371-8.629c0.781-0.65 1.233-1.614 1.233-2.63v-2.97c1.736 0 3.148 1.386 3.195 3.112 2.4 0 4.645 1.185 6 3.167l9.937 20.804v3.445z"></path>
<path fill="#9b4f1d" style="fill: var(--color48, #9b4f1d)" d="M6.42 20.122c0.366-5.249-3.856-5.469-3.856-5.469l-1.364 1.115c-1.319 1.090-1.587 3.008-0.619 4.418 1.054 1.535 3.167 1.894 4.668 0.794z"></path>
<path fill="#bf7341" style="fill: var(--color47, #bf7341)" d="M3.292 19.645c-0.267 0-0.483-0.216-0.483-0.483 0-0.751-0.527-0.864-0.689-0.881 0 0-0.526 0.022-0.526-0.463 0-0.579 0.605-0.5 0.605-0.5 0.545 0.041 1.576 0.48 1.576 1.843 0 0.267-0.216 0.483-0.483 0.483z"></path>
<path fill="#9b4f1d" style="fill: var(--color48, #9b4f1d)" d="M15.41 10.905c-0.267 0-0.483-0.216-0.483-0.483 0-0.536-0.454-0.971-1.011-0.971s-1.011 0.436-1.011 0.971c0 0.267-0.216 0.483-0.483 0.483s-0.483-0.216-0.483-0.483c0-1.068 0.887-1.937 1.977-1.937s1.977 0.869 1.977 1.937c0 0.267-0.216 0.483-0.483 0.483z"></path>
<path fill="#ffdec2" style="fill: var(--color46, #ffdec2)" d="M32 8.35s-4.099-7.836-10.937-8.33c-3.77-0.272-6.077 2.236-6.077 2.236s1.012 0.712 1.076 2.328c0 0 3.46 0.872 4.488 5.385 0.475 2.086-0.11 4.391-0.11 4.391s1.755-0.75 2.248-2.507c0 0-0.937 8.382 4.229 12.648 0 0-0.387-1.81 0.753-3.361 0 0 0.667 4.827 4.327 7.822z"></path>
<path fill="#facfaa" style="fill: var(--color49, #facfaa)" d="M20.759 11.853c-0.007 0.025-0.015 0.048-0.022 0.073-0.002 0.113-0.005 0.224-0.010 0.332 0.016-0.26 0.032-0.405 0.032-0.405z"></path>
<path fill="#facfaa" style="fill: var(--color49, #facfaa)" d="M30.068 8.35l1.932 2.913v-2.913s-4.099-7.836-10.937-8.33c-0.54-0.039-1.051-0.021-1.528 0.039 6.595 0.764 10.534 8.291 10.534 8.291z"></path>
<path fill="#facfaa" style="fill: var(--color49, #facfaa)" d="M20.714 12.482c-0.070 1.081-0.272 1.878-0.272 1.878z"></path>
<path fill="#f0b86c" style="fill: var(--color50, #f0b86c)" d="M25.835 5.312c-0.152 0-0.302-0.072-0.396-0.206-1.266-1.808-4.294-2.687-5.886-2.138-0.252 0.087-0.527-0.047-0.614-0.299s0.047-0.527 0.299-0.614c1.010-0.348 2.369-0.278 3.728 0.193 1.385 0.48 2.575 1.32 3.264 2.304 0.153 0.218 0.1 0.52-0.119 0.673-0.084 0.059-0.181 0.087-0.277 0.087z"></path>
</symbol>
<symbol id="icon-native" viewBox="0 0 32 32">
<path fill="#ffdd40" style="fill: var(--color51, #ffdd40)" d="M28.561 25.446c1.734-2.482 2.752-5.501 2.752-8.759 0-8.457-6.856-15.313-15.313-15.313s-15.313 6.856-15.313 15.313c0 3.257 1.018 6.277 2.752 8.759z"></path>
<path fill="#ffc839" style="fill: var(--color52, #ffc839)" d="M27.25 13.875c0 6.213-5.037 11.25-11.25 11.25s-11.25-5.037-11.25-11.25c0-6.213 5.037-11.25 11.25-11.25s11.25 5.037 11.25 11.25z"></path>
<path fill="#1e2f59" style="fill: var(--color53, #1e2f59)" d="M23.468 13.077c0.002-0.102 0.004-0.204 0.004-0.306 0-5.613-3.345-10.163-7.471-10.163s-7.471 4.55-7.471 10.163c0 4.618-0.022 7.984-1.877 10.163h18.693c-1.813-2.13-1.875-5.396-1.877-9.857z"></path>
<path fill="#3c5082" style="fill: var(--color54, #3c5082)" d="M16 0c-5.422 0-7.619 5.182-5.994 9.347h11.988c1.625-4.165-0.572-9.347-5.994-9.347z"></path>
<path fill="#2d3c6b" style="fill: var(--color55, #2d3c6b)" d="M22.206 8.724c-0.002-0.034-0.506-4.111-4.032-4.746-3.601-0.649-6.661-2.674-4.598-3.58-3.62 1.29-4.927 5.473-3.571 8.949h11.988c0.080-0.205 0.151-0.413 0.212-0.623z"></path>
<path fill="#f1e0c7" style="fill: var(--color56, #f1e0c7)" d="M21.084 2.981c0.728-1.261 1.916-2.092 3.229-2.403 0.158-0.037 0.321 0.056 0.367 0.212 0.163 0.545 0.235 1.117 0.21 1.691-0.009 0.192-0.139 0.357-0.325 0.406-0.233 0.063-0.372 0.303-0.309 0.536l0.183 0.685c0.027 0.102 0.016 0.209-0.029 0.304-0.060 0.127-0.125 0.252-0.197 0.376-0.728 1.261-1.915 2.092-3.229 2.403-0.159 0.038-0.321-0.056-0.368-0.212-0.387-1.293-0.262-2.736 0.466-3.998z"></path>
<path fill="#e8d0b1" style="fill: var(--color57, #e8d0b1)" d="M21.084 2.981c-0.728 1.261-0.854 2.705-0.466 3.998 0.047 0.156 0.209 0.25 0.368 0.212 0.69-0.163 1.344-0.472 1.916-0.909 0.739-2.205 0.184-4.008-0.268-4.966-0.617 0.417-1.152 0.976-1.549 1.665z"></path>
<path fill="#ff4155" style="fill: var(--color58, #ff4155)" d="M19.020 3.337l-0.218-0.218c-0.156-0.156-0.218-0.384-0.164-0.598 0.241-0.947 0.749-1.788 1.438-2.439 0.12-0.113 0.308-0.109 0.428 0.005 0.979 0.926 1.59 2.237 1.59 3.691s-0.611 2.765-1.59 3.691c-0.12 0.114-0.308 0.118-0.428 0.005-0.69-0.65-1.197-1.491-1.438-2.439-0.055-0.214 0.008-0.441 0.164-0.598l0.218-0.218c0.244-0.244 0.244-0.64 0-0.884z"></path>
<path fill="#e80054" style="fill: var(--color59, #e80054)" d="M19.41 0.852c-0.352 0.498-0.617 1.062-0.771 1.67-0.055 0.214 0.008 0.441 0.164 0.598l0.218 0.218c0.244 0.244 0.244 0.64 0 0.884l-0.218 0.218c-0.156 0.156-0.218 0.383-0.164 0.598 0.241 0.947 0.749 1.788 1.438 2.439 0.12 0.113 0.308 0.109 0.428-0.005 0.527-0.498 0.947-1.107 1.222-1.79-2.815-1.499-2.323-4.793-2.318-4.827z"></path>
<path fill="#cc0053" style="fill: var(--color60, #cc0053)" d="M20.357 7.923c-0.173 0-0.313-0.14-0.313-0.313v-5.109c0-0.173 0.14-0.313 0.313-0.313s0.313 0.14 0.313 0.313v5.109c0 0.173-0.14 0.313-0.313 0.313z"></path>
<path fill="#a05838" style="fill: var(--color61, #a05838)" d="M28.557 25.446c-0.576-1.585-1.19-2.958-1.712-3.419-0.208-0.183-0.513-0.362-0.883-0.533l-0 0h-19.928c-0.37 0.171-0.675 0.349-0.882 0.533-0.522 0.461-1.136 1.834-1.712 3.419 2.768 3.962 7.361 6.554 12.561 6.554 5.198 0 9.79-2.59 12.558-6.55-0-0.001-0.001-0.002-0.001-0.004z"></path>
<path fill="#7f3822" style="fill: var(--color62, #7f3822)" d="M6.034 21.495c-0.37 0.171-0.675 0.349-0.882 0.533-0.522 0.461-1.136 1.834-1.712 3.419 2.768 3.962 7.361 6.554 12.561 6.554 3.317 0 6.387-1.055 8.894-2.847l0-0c0-0 0-0 0.001-0-5.092 0.355-8.235-2.224-9.992-4.827-0.583-0.864-0.674-1.915-0.342-2.83z"></path>
<path fill="#e8d0b1" style="fill: var(--color57, #e8d0b1)" d="M24.186 20.847h-16.376c-0.661 0.199-1.278 0.417-1.777 0.648l0.112 0.215c0.118 0.227 2.967 5.572 9.853 5.572s9.735-5.344 9.854-5.574l0.11-0.212c-0.498-0.231-1.116-0.448-1.776-0.648z"></path>
<path fill="#ce846a" style="fill: var(--color63, #ce846a)" d="M18.975 19.667v-0.001c-0.020-0.003-0.031-0.005-0.031-0.005v-7.552h-5.892v7.552c-0.108 0.018-2.936 0.49-5.242 1.186s2.363 4.559 8.188 4.559 8.188-4.559 8.188-4.559l0-0c-2.202-0.664-4.881-1.125-5.211-1.18z"></path>
<path fill="#c3785c" style="fill: var(--color64, #c3785c)" d="M12.32 19.792c-0.966 0.18-2.723 0.533-4.292 0.991l-0.004 0.001c-0.072 0.021-0.144 0.042-0.215 0.064 0 0 2.287 4.413 7.909 4.556-0.3-0.354-0.571-0.716-0.816-1.078-0.957-1.419-0.591-3.346 0.804-4.337 2.299-1.633 3.237-3.629 3.237-3.629v-4.25h-5.893v7.552c-0.291 0.050-0.58 0.101-0.732 0.13z"></path>
<path fill="#a05838" style="fill: var(--color61, #a05838)" d="M16 21.261c-1.409 0-2.621-0.478-3.505-1.381-0.121-0.123-0.118-0.321 0.005-0.442s0.321-0.118 0.442 0.005c0.763 0.781 1.821 1.193 3.058 1.193s2.295-0.413 3.058-1.193c0.121-0.123 0.319-0.126 0.442-0.005s0.126 0.319 0.005 0.442c-0.884 0.904-2.095 1.381-3.505 1.381z"></path>
<path fill="#6b2c1b" style="fill: var(--color65, #6b2c1b)" d="M5.692 26.678v1.333c0.447 0.407 0.919 0.789 1.412 1.141l-0.752-2.569c-0.109-0.374-0.66-0.295-0.66 0.095z"></path>
<path fill="#7f3822" style="fill: var(--color62, #7f3822)" d="M26.308 26.678v1.333c-0.447 0.407-0.919 0.789-1.412 1.141l0.752-2.569c0.109-0.374 0.66-0.295 0.66 0.095z"></path>
<path fill="#dd9883" style="fill: var(--color66, #dd9883)" d="M10.654 7.611c-0.084 0.497-0.129 1.019-0.129 1.561 0 4.032 2.451 8.76 5.475 8.76s5.475-4.728 5.475-8.76c0-0.542-0.045-1.064-0.129-1.561z"></path>
<path fill="#ce846a" style="fill: var(--color63, #ce846a)" d="M13.025 9.172c0-0.542 0.044-1.064 0.129-1.561h-2.5c-0.084 0.497-0.129 1.019-0.129 1.561 0 4.032 2.451 8.76 5.475 8.76 0.43 0 0.849-0.096 1.25-0.272-2.421-1.059-4.225-5.030-4.225-8.488z"></path>
<path fill="#3c5082" style="fill: var(--color54, #3c5082)" d="M12.405 7.611h-3.138c0 1.512-0.129 4.889 1.569 6.8 1.697-1.911 1.569-5.288 1.569-6.8z"></path>
<path fill="#3c5082" style="fill: var(--color54, #3c5082)" d="M10.835 14.411c-1.376 1.14-1.391 3.086-1.385 4.155 0.001 0.144 0.118 0.26 0.262 0.26h1.158c0.118 0 0.222-0.079 0.253-0.194l0.015-0.054c0.073-0.273 0.467-0.252 0.511 0.027 0.020 0.127 0.13 0.221 0.258 0.221h0.053c0.144 0 0.261-0.116 0.262-0.26 0.006-1.069-0.009-3.015-1.385-4.155z"></path>
<path fill="#ff4155" style="fill: var(--color58, #ff4155)" d="M11.304 15.348h-0.938c-0.259 0-0.469-0.21-0.469-0.469s0.21-0.469 0.469-0.469h0.938c0.259 0 0.469 0.21 0.469 0.469s-0.21 0.469-0.469 0.469z"></path>
<path fill="#ffc839" style="fill: var(--color52, #ffc839)" d="M11.304 14.411h-0.938c-0.259 0-0.469-0.21-0.469-0.469s0.21-0.469 0.469-0.469h0.938c0.259 0 0.469 0.21 0.469 0.469s-0.21 0.469-0.469 0.469z"></path>
<path fill="#3c5082" style="fill: var(--color54, #3c5082)" d="M19.595 7.611h3.138c0 1.512 0.128 4.889-1.569 6.8-1.698-1.911-1.569-5.288-1.569-6.8z"></path>
<path fill="#3c5082" style="fill: var(--color54, #3c5082)" d="M21.165 14.411c1.376 1.14 1.391 3.086 1.385 4.155-0.001 0.144-0.118 0.26-0.262 0.26h-1.157c-0.118 0-0.222-0.079-0.253-0.194l-0.015-0.054c-0.073-0.273-0.467-0.252-0.511 0.027-0.020 0.127-0.13 0.221-0.258 0.221h-0.053c-0.144 0-0.261-0.116-0.262-0.26-0.006-1.069 0.009-3.015 1.385-4.155z"></path>
<path fill="#ff4155" style="fill: var(--color58, #ff4155)" d="M20.696 15.348h0.938c0.259 0 0.469-0.21 0.469-0.469s-0.21-0.469-0.469-0.469h-0.938c-0.259 0-0.469 0.21-0.469 0.469s0.21 0.469 0.469 0.469z"></path>
<path fill="#ffc839" style="fill: var(--color52, #ffc839)" d="M20.696 14.411h0.938c0.259 0 0.469-0.21 0.469-0.469s-0.21-0.469-0.469-0.469h-0.938c-0.259 0-0.469 0.21-0.469 0.469s0.21 0.469 0.469 0.469z"></path>
<path fill="#ffc839" style="fill: var(--color52, #ffc839)" d="M22.875 8.861c0.094 0 0.177-0.042 0.235-0.108l-0.234-1.196-1.484-1.196-1.484 1.196-0.312 1.304z"></path>
<path fill="#ff4155" style="fill: var(--color58, #ff4155)" d="M19.594 8.861l-0.312-1.304-1.485-1.196-1.523 1.25-0.273 1.25z"></path>
<path fill="#f9efdc" style="fill: var(--color67, #f9efdc)" d="M16.001 8.861l-0.274-1.25-1.523-1.25-1.524 1.25-0.273 1.25z"></path>
<path fill="#ffc839" style="fill: var(--color52, #ffc839)" d="M9.125 8.861h3.282l-0.274-1.25-1.524-1.25-1.524 1.25-0.196 1.142c0.057 0.066 0.141 0.108 0.235 0.108z"></path>
<path fill="#f9efdc" style="fill: var(--color67, #f9efdc)" d="M21.391 6.361h-3.593l1.797 2.5z"></path>
<path fill="#ff4155" style="fill: var(--color58, #ff4155)" d="M23.188 8.548v-1.875c0-0.173-0.14-0.313-0.313-0.313h-1.484l1.719 2.392c0.048-0.055 0.078-0.126 0.078-0.204z"></path>
<path fill="#ffc839" style="fill: var(--color52, #ffc839)" d="M17.797 6.361h-3.594l1.797 2.5z"></path>
<path fill="#f9efdc" style="fill: var(--color67, #f9efdc)" d="M9.125 6.361c-0.173 0-0.313 0.14-0.313 0.313v1.875c0 0.079 0.030 0.149 0.078 0.204l1.719-2.392z"></path>
<path fill="#ff4155" style="fill: var(--color58, #ff4155)" d="M14.204 6.361h-3.594l1.797 2.5z"></path>
</symbol>
<symbol id="icon-tiger" viewBox="0 0 32 32">
<path fill="#ffc88c" style="fill: var(--color68, #ffc88c)" d="M30.73 19.188c-0.23 0-0.444-0.031-0.595-0.067-1.511-0.363-1.826-1.965-2.056-3.134l-0.069-0.346c-0.659-3.155-2.067-4.717-4.71-5.224-0.275-0.053-0.456-0.319-0.403-0.594s0.319-0.457 0.595-0.403c3.067 0.588 4.767 2.442 5.512 6.014l0.072 0.358c0.245 1.248 0.481 2.147 1.296 2.342 0.235 0.056 0.508 0.044 0.63 0.009 0.063-0.225 0.266-0.386 0.517-0.371 0.28 0.015 0.495 0.254 0.48 0.534-0.014 0.253-0.135 0.478-0.344 0.633-0.254 0.19-0.606 0.25-0.926 0.25z"></path>
<path fill="#d26437" style="fill: var(--color69, #d26437)" d="M20.063 16.31c0.035 1.476 0.825 6.497 0.825 6.497h-0.444c-0.355 0-0.685 0.186-0.869 0.49l-0.326 0.539c-0.132 0.217 0.025 0.495 0.279 0.495h1.347c0.327 0 0.634-0.158 0.825-0.423l0.7-0.975c0.118-0.164 0.18-0.358 0.187-0.561 0.057-1.583 0.53-3.381 0.777-4.136l-2.032-2.54-1.27 0.614z"></path>
<path fill="#d26437" style="fill: var(--color69, #d26437)" d="M12.698 17.22h-3.048l2.137 5.587c-0.377 0-0.723 0.209-0.899 0.542l-0.282 0.536c-0.107 0.202 0.040 0.445 0.269 0.445h1.15c0.408 0 0.777-0.244 0.936-0.62l0.482-1.139c0.075-0.178 0.098-0.374 0.066-0.565l-0.81-4.787z"></path>
<path fill="#ffc88c" style="fill: var(--color68, #ffc88c)" d="M9.106 14.173v3.906c6.174-0.060 9.975-1.122 11.719-1.765v-2.141h-11.719z"></path>
<path fill="#eb874b" style="fill: var(--color70, #eb874b)" d="M26 13.653v-1.418c0-1.276-0.853-2.399-2.086-2.727-0.010-0.003-0.517-0.109-0.517-0.109-3.308-0.634-9.432 0.567-11.025 0.603-2.095 0.048-3.908-1.163-5.632-1.688-0.765-0.233-1.58-0.246-2.364-0.089l-1.002 0.2c-1.312 0.249-1.765 0.55-2.249 1.35-0.474 0.784-1.125 2.812-1.125 2.812s1.524 2.050 2.032 1.542c0.593-0.593 1.185-0.952 1.905-0.98 0.449-0.017 0.994 0.183 1.477-0.059 2.471 3.629-0.334 9.673-0.334 9.673h-0.146c-0.388 0-0.743 0.221-0.913 0.57l-0.261 0.535c-0.094 0.193 0.046 0.419 0.261 0.419h1.261c0.221 0 0.441-0.066 0.614-0.204 2.395-1.915 4.329-6.647 4.921-8.214 0.123-0.326 0.404-0.569 0.746-0.637 0.063-0.012 0.13-0.025 0.201-0.039l2.098-0.265c1.684-0.115 3.847-0.023 5.734 0.812 0.334 0.148 0.628 0.381 0.838 0.68 0.973 1.389 2.443 1.877 4.137 3.201 1.503 1.175 1.558 3.143 1.558 3.143-0.437 0-0.825 0.28-0.964 0.695l-0.149 0.446c-0.063 0.188 0.077 0.383 0.276 0.383h1.674c0.262 0 0.481-0.199 0.506-0.46l0.435-4.597c0.012-0.127-0.023-0.251-0.1-0.353-0.42-0.554-1.807-2.584-1.807-5.225z"></path>
<path fill="#d26437" style="fill: var(--color69, #d26437)" d="M4.197 7.727c-0.257 0.163-0.627 0.47-0.893 0.992-0.115 0.224 0.041 0.493 0.293 0.506l1.138 0.059c0.228 0.012 0.406-0.195 0.359-0.419-0.063-0.299-0.178-0.697-0.38-1.020-0.11-0.176-0.342-0.228-0.517-0.117z"></path>
<path fill="#d26437" style="fill: var(--color69, #d26437)" d="M6.293 21.974c2.002-3.828 1.17-7.409 0.615-8.987-0.133-0.377-0.6-0.52-0.914-0.272-0.173 0.137-0.369 0.267-0.581 0.376 2.471 3.629-0.334 9.673-0.334 9.673v0c0.513-0.033 0.975-0.333 1.214-0.789z"></path>
<path fill="#ffc88c" style="fill: var(--color68, #ffc88c)" d="M2.032 14.129c0.593-0.593 1.185-0.952 1.905-0.98 0.449-0.017 0.993 0.183 1.477-0.059-0.084 0.034-0.177 0.016-0.279-0.036-0.383-0.194-0.896-0.859-1.547-1.009-0.825-0.191-2.191 1.665-3.587 0.541 0 0 1.524 2.050 2.032 1.542z"></path>
<path fill="#8b534f" style="fill: var(--color71, #8b534f)" d="M17.183 13.792c-0.057 0-0.114-0.010-0.17-0.030-0.264-0.094-0.402-0.384-0.308-0.649l0.677-1.905c0.094-0.264 0.385-0.402 0.649-0.309s0.402 0.384 0.308 0.649l-0.677 1.905c-0.074 0.208-0.27 0.338-0.479 0.338z"></path>
<path fill="#8b534f" style="fill: var(--color71, #8b534f)" d="M23.066 14.152c-0.056 0-0.113-0.009-0.169-0.029-0.264-0.093-0.404-0.383-0.311-0.648l0.677-1.926c0.093-0.265 0.382-0.403 0.648-0.311 0.264 0.093 0.404 0.383 0.311 0.648l-0.677 1.926c-0.073 0.209-0.27 0.34-0.479 0.34z"></path>
<path fill="#8b534f" style="fill: var(--color71, #8b534f)" d="M12.166 13.728c-0.224 0-0.429-0.149-0.49-0.375l-0.339-1.249c-0.073-0.271 0.086-0.55 0.357-0.623 0.271-0.072 0.55 0.087 0.623 0.357l0.339 1.249c0.073 0.271-0.086 0.55-0.357 0.623-0.045 0.012-0.089 0.018-0.133 0.018z"></path>
<path fill="#4b3f4e" style="fill: var(--color28, #4b3f4e)" d="M2.54 10.363c0 0.14-0.114 0.254-0.254 0.254s-0.254-0.114-0.254-0.254c0-0.14 0.114-0.254 0.254-0.254s0.254 0.114 0.254 0.254z"></path>
<path fill="#5d5360" style="fill: var(--color44, #5d5360)" d="M0.899 12.966c0-0.421-0.341-0.762-0.762-0.762-0.004 0-0.007 0.001-0.011 0.001-0.079 0.231-0.127 0.382-0.127 0.382s0.326 0.437 0.726 0.858c0.107-0.131 0.173-0.296 0.173-0.479z"></path>
<path fill="#ffc88c" style="fill: var(--color68, #ffc88c)" d="M4.021 24.288h1.261c0.221 0 0.441-0.066 0.614-0.204 0.445-0.355 0.873-0.808 1.28-1.32h-2.242c-0.388 0-0.743 0.221-0.913 0.57l-0.261 0.535c-0.094 0.193 0.046 0.419 0.262 0.419z"></path>
<path fill="#ffc88c" style="fill: var(--color68, #ffc88c)" d="M26.129 22.764c-0.437 0-0.826 0.28-0.964 0.695l-0.149 0.446c-0.063 0.188 0.077 0.383 0.276 0.383h1.674c0.262 0 0.481-0.199 0.506-0.46l0.101-1.064h-1.444z"></path>
<path fill="#ffbe82" style="fill: var(--color72, #ffbe82)" d="M20.889 22.808h-0.444c-0.355 0-0.685 0.186-0.869 0.49l-0.326 0.539c-0.132 0.217 0.025 0.495 0.279 0.495h1.346c0.327 0 0.634-0.158 0.825-0.423l0.7-0.975c0.028-0.039 0.042-0.084 0.064-0.125l-1.575 0z"></path>
<path fill="#ffbe82" style="fill: var(--color72, #ffbe82)" d="M11.788 22.808c-0.377 0-0.723 0.209-0.899 0.542l-0.282 0.536c-0.107 0.202 0.040 0.445 0.269 0.445h1.15c0.408 0 0.777-0.244 0.936-0.62l0.382-0.904-1.555 0z"></path>
<path fill="#8b534f" style="fill: var(--color71, #8b534f)" d="M7.193 8.468v2.446c0 0.28 0.227 0.508 0.508 0.508s0.508-0.227 0.508-0.508v-2.041c-0.343-0.145-0.682-0.284-1.016-0.405z"></path>
<path fill="#734650" style="fill: var(--color73, #734650)" d="M9.697 9.478l-1.974 6.58c-0.080 0.269 0.072 0.552 0.341 0.633 0.049 0.015 0.098 0.022 0.146 0.022 0.219 0 0.421-0.142 0.487-0.362l1.97-6.566c-0.329-0.085-0.652-0.19-0.969-0.306z"></path>
<path fill="#734650" style="fill: var(--color73, #734650)" d="M14.196 13.082c0.063 0.224 0.267 0.371 0.489 0.371 0.046 0 0.092-0.006 0.138-0.019 0.27-0.076 0.428-0.356 0.352-0.626l-0.844-3.008c-0.379 0.048-0.718 0.090-1.020 0.124l0.886 3.159z"></path>
<path fill="#734650" style="fill: var(--color73, #734650)" d="M20.763 9.219l-1.048 4.391c-0.065 0.273 0.103 0.547 0.376 0.612 0.040 0.009 0.079 0.014 0.119 0.014 0.23 0 0.438-0.157 0.494-0.39l1.101-4.613c-0.336-0.014-0.684-0.019-1.041-0.014z"></path>
<path fill="#734650" style="fill: var(--color73, #734650)" d="M26.003 13.759l-2.541 2.096c-0.216 0.179-0.247 0.499-0.068 0.715 0.101 0.122 0.246 0.185 0.392 0.185 0.114 0 0.228-0.038 0.323-0.116l2.008-1.656c-0.067-0.389-0.108-0.798-0.114-1.223z"></path>
<path fill="#8b534f" style="fill: var(--color71, #8b534f)" d="M26.595 16.684l-1.019 0.687c-0.233 0.157-0.294 0.472-0.137 0.705 0.098 0.146 0.258 0.224 0.422 0.224 0.098 0 0.196-0.028 0.283-0.087l0.878-0.592c-0.145-0.278-0.292-0.591-0.427-0.937z"></path>
</symbol>
<symbol id="icon-wolf" viewBox="0 0 32 32">
<path fill="#efe373" style="fill: var(--color74, #efe373)" d="M32 16c0 8.837-7.164 16-16 16-0.384 0-0.764-0.013-1.141-0.040-7.505-0.529-13.582-6.234-14.681-13.567-0.118-0.781-0.178-1.579-0.178-2.393 0-8.836 7.163-16 16-16 3.736 0 7.172 1.28 9.896 3.427 1.010 0.796 1.474 2.706 2.266 3.72 0.592 0.757 1.567 0.575 2.017 1.433 1.162 2.218 1.821 4.741 1.821 7.419z"></path>
<path fill="#999" style="fill: var(--color75, #999)" d="M28.246 3.53l1.313 1.598-0.844 0.844c-0.159 0.159-0.159 0.417 0.001 0.577 0.079 0.079 0.184 0.119 0.288 0.119s0.208-0.039 0.288-0.119l0.787-0.787 0.565 0.687c0.297 0.361 0.325 0.871 0.070 1.262l-14.829 22.704-1.027 1.547c-1.891-0.134-3.692-0.596-5.345-1.331-0.197-0.086-0.39-0.179-0.583-0.274l-0.055-0.025 0.001-0.001c-4.581-2.28-7.914-6.691-8.701-11.937l17.262-11.805c0.508-0.37 1.112-0.56 1.721-0.56 0.408 0.001 0.817 0.086 1.202 0.259 1.109 0.501 2.411 0.262 3.272-0.599l2.26-2.26c0.313-0.313 0.722-0.467 1.129-0.467 0.453 0 0.906 0.192 1.223 0.57z"></path>
<path fill="#999" style="fill: var(--color75, #999)" d="M13.852 11.825l-6.309 3.742 3.717-10.141c0 0-0 0.001 0.001 0.002l0.677 0.81c1.155 1.385 1.823 3.104 1.911 4.893 0.011 0.23 0.013 0.462 0.005 0.694z"></path>
<path fill="#666" style="fill: var(--color76, #666)" d="M25.242 4.081v0c0.961 0.507 2.135 0.374 2.958-0.335l0.132-0.114-0.525-0.625c-0.366-0.436-1.027-0.465-1.43-0.062l-1.136 1.136z"></path>
<path fill="#666" style="fill: var(--color76, #666)" d="M17.947 9.75v0c0.755-0.806 1.731-1.371 2.805-1.626l0.181-0.043c-0.368 0.844-1.152 1.433-2.065 1.55l-0.921 0.119z"></path>
<path fill="#999" style="fill: var(--color75, #999)" d="M22.941 19.611l-1.486 5.218-1.196-1.112z"></path>
<path fill="#999" style="fill: var(--color75, #999)" d="M20.259 23.718l-1.531 6.001-1.463-1.417z"></path>
<path fill="#999" style="fill: var(--color75, #999)" d="M25.052 16.38l-0.681 3.559-1.43-0.327z"></path>
</symbol>
</defs>
</svg>
